<svg xmlns="http://www.w3.org/2000/svg" viewBox="0 0 251.78 75.45"><defs><style>.cls-1{fill:#009ee0;}.cls-2,.cls-3{fill:#00418e;}.cls-3{fill-rule:evenodd;}</style></defs><g id="Layer_2" data-name="Layer 2"><g id="Layer_1-2" data-name="Layer 1"><path class="cls-1" d="M0,61.69c0,.28,0,.57,0,.85A95.1,95.1,0,0,1,55,23.48a87.07,87.07,0,0,1,24.2-3.26h0C70,8,56.7.1,40.3,0A50.16,50.16,0,0,0,14.2,7.09c6.56,1.22,13.9,4.08,18.1,7.22A51.2,51.2,0,0,0,0,61.69"/><path class="cls-2" d="M45.21,74.79H37L48.49,44h8.15l11.52,30.8H59.79l-1.9-5.52H47.15Zm7.38-22.25H52.5L49,63.32h7Z"/><polygon class="cls-2" points="93.15 43.99 119.55 43.99 119.55 50.9 110.36 50.9 110.36 74.79 102.34 74.79 102.34 50.9 93.15 50.9 93.15 43.99"/><path class="cls-2" d="M147.18,74.79H132.7V44h14.09c7.42,0,11.13,2.59,11.13,7.72a6.53,6.53,0,0,1-4,6.22,7.25,7.25,0,0,1,5.3,7.28c0,6.39-4,9.58-12,9.58m-.56-24.58h-5.89v5.9h5.89a3.67,3.67,0,0,0,2.16-.64,2.67,2.67,0,0,0,1.12-2.29c0-2-1.08-3-3.28-3m.22,11.08h-6.11v7.08h6.11c2.89,0,4.31-1.17,4.31-3.46s-1.42-3.62-4.31-3.62"/><path class="cls-2" d="M167,74.79h-8.24L170.23,44h8.15l11.52,30.8h-8.37l-1.9-5.52H168.89Zm7.37-22.25h-.08l-3.5,10.78h7Z"/><path class="cls-3" d="M79.3,69.36c1.15-.12,2.41-1,3.84-2.58l-5.3-5.1c-2.24,1.3-3,3-2.89,4.58a3.17,3.17,0,0,0,1.53,2.43,4.16,4.16,0,0,0,2.82.67M79.08,54.3c1.77-1.34,2.58-2.67,2.45-4a2.49,2.49,0,0,0-5,.41c.14,1.41,1.42,2.57,2.51,3.63Zm4.2,3.75,3.86,3.86a6.85,6.85,0,0,0,.81-3.1h6.23a13.68,13.68,0,0,1-2.28,7.8l8,8.18h-9l-3.1-3.36a11.64,11.64,0,0,1-8.16,3.94,11.48,11.48,0,0,1-7.72-1.65A9.16,9.16,0,0,1,68.15,67c-.38-3.8,1.14-7,5.53-9.59-2-1.83-3.33-3.87-3.52-5.79a7.07,7.07,0,0,1,2.13-5.89,9.21,9.21,0,0,1,5.81-2.69,9.07,9.07,0,0,1,6.27,1.58,7.2,7.2,0,0,1,3.12,5.47c.32,3.2-1.09,5.53-4.21,7.94"/><polygon class="cls-2" points="198.63 74.79 191.08 74.79 191.08 43.99 199.31 43.99 210.01 62.97 210.1 62.97 210.1 43.99 217.65 43.99 217.65 74.79 209.41 74.79 198.71 55.6 198.63 55.6 198.63 74.79"/><polygon class="cls-2" points="230.26 74.79 222.24 74.79 222.24 43.99 230.26 43.99 230.26 55.81 240.4 43.99 250.36 43.99 238.7 56.39 251.78 74.79 241.82 74.79 233.27 62.12 230.26 65.3 230.26 74.79"/></g></g></svg>