<svg xmlns="http://www.w3.org/2000/svg" viewBox="0 0 320 80" width="100%" height="100%">
  <!-- CarrefourSA High-Fidelity SVG Logo -->
  <g transform="translate(10, 20)">
    <!-- Red Left shape -->
    <path d="M 18 0 C 11 6, 7 13, 7 21 C 7 29, 11 36, 18 42 L 0 21 Z" fill="#E30A17" />
    <!-- Blue Right shape -->
    <path d="M 27 0 C 34 6, 38 13, 38 21 C 38 29, 34 36, 27 42 L 45 21 Z" fill="#0033A0" />
    <!-- White C shape inside negative space -->
    <path d="M 22.5 8 C 17.5 8, 14 11.5, 14 21 C 14 30.5, 17.5 34, 22.5 34 C 25.5 34, 28 32, 29.5 29 L 29.5 37.5 C 27.5 39.5, 25 40.5, 22.5 40.5 C 12.5 40.5, 6 32, 6 21 C 6 10, 12.5 1.5, 22.5 1.5 C 25 1.5, 27.5 2.5, 29.5 4.5 L 29.5 13 C 28 10, 25.5 8, 22.5 8 Z" fill="#FFFFFF" />
  </g>
  <text x="65" y="52" font-family="'Inter', -apple-system, BlinkMacSystemFont, sans-serif" font-weight="800" font-size="34" fill="#FFFFFF" letter-spacing="-1">Carrefour<tspan fill="#E30A17" font-weight="900">SA</tspan></text>
</svg>