<?xml version="1.0" encoding="utf-8"?>
<!-- Generator: Adobe Illustrator 27.8.0, SVG Export Plug-In . SVG Version: 6.00 Build 0)  -->
<svg version="1.1" id="_8_-_CBR_New" xmlns="http://www.w3.org/2000/svg" xmlns:xlink="http://www.w3.org/1999/xlink" x="0px"
	 y="0px" viewBox="0 0 203.6 76" style="enable-background:new 0 0 203.6 76;" xml:space="preserve">
<style type="text/css">
	.st0{fill:#000000;}
	.st1{fill:none;}
	.st2{fill:#FCC826;}
	.st3{fill:#C52129;}
</style>
<path class="st0" d="M46.6,40.5c-0.5,3.5-2,6.8-4.3,9.5c-2.4,2.3-5.7,3.5-9,3.2c-2,0.1-4-0.4-5.7-1.3c-0.2-0.1-0.5-0.3-0.7-0.4
	c-1.1-0.7-2.1-1.5-3-2.5c-2.3-2.7-3.4-7.7-3.4-15.1c0-5.8,1.1-10.3,2.9-13c2.4-3.6,6.5-5.7,10.8-5.6c1.9,0,3.8,0.4,5.6,1.3
	c1.6,0.9,3,2.1,4.1,3.6c0.2,0.2,0.3,0.5,0.4,0.8s0.2,0.4,0.3,0.6c0.5,1,0.9,2,1.2,3.1l2-0.5H48l16-3.6c-1-3.7-2.7-7.1-5-10.2
	c-0.2-0.2-0.3-0.4-0.5-0.6c-1.5-1.8-3.2-3.5-5.1-4.9c-4.9-3.4-11.3-5-19.8-5c-10.8,0-18.9,2.9-24.9,8.8s-8.8,14.4-8.8,25.4
	c0,8.3,1.6,15.1,4.9,20.2c1.7,2.9,3.8,5.5,6.5,7.7l0.6,0.5c1.5,1.2,3.1,2.2,4.8,3c5.6,2.3,11.6,3.4,17.6,3.2
	c5,0.2,10.1-0.7,14.8-2.5c3.8-1.7,7.2-4.4,9.7-7.7c0.4-0.6,0.8-1.2,1.2-1.8c1.5-2.4,2.7-4.9,3.6-7.6c0.1-0.2,0.1-0.4,0.2-0.6
	c0.3-0.8,0.5-1.7,0.7-2.6L46.6,40.5z"/>
<path class="st0" d="M124.5,38.9c-0.3-0.4-0.6-0.9-0.9-1.3c-1.1-1.2-2.4-2.3-3.7-3.2c-2.1-1.4-4.4-2.3-6.9-2.8
	c2.7-0.9,5.2-2.4,7.2-4.5c2.5-2.7,3.8-6.4,3.6-10.1c0.1-3.2-0.8-6.4-2.6-9c-0.7-1-1.5-1.9-2.5-2.7c-3.4-3.2-8.3-4.9-14.8-4.9H65.5
	v66.8h35.6c3.1-0.1,6.1-0.4,9.2-0.9c2.7-0.2,5.3-0.9,7.7-2.2c2.7-1.6,5-3.9,6.7-6.7c1.6-2.9,2.4-6.1,2.3-9.4
	C127.2,44.9,126.3,41.6,124.5,38.9z M86.3,14h9c2.3-0.2,4.6,0.4,6.5,1.6c0.9,0.8,1.4,1.8,1.7,2.9c0.1,0.5,0.2,1.1,0.1,1.6
	c0.2,1.8-0.5,3.6-1.8,4.9c-2,1.2-4.3,1.8-6.7,1.6h-9L86.3,14z M104.2,51c-1.4,1.3-4,1.8-7.6,1.8H86.2V39.4h10.5
	c3.6,0,6.1,0.5,7.6,1.8c0.9,0.7,1.6,1.7,1.9,2.9c0.2,0.6,0.3,1.2,0.3,1.8C106.5,47.8,105.7,49.7,104.2,51z"/>
<path class="st1" d="M162.7,26.6c1.3-0.3,2.4-1.1,3.2-2.2c0.8-1.1,1.2-2.3,1.3-3.6c0.1-0.7,0-1.5-0.2-2.2c-1.8-0.5-3.7-0.7-5.5-0.6
	h-9v9.5h4.8C159.1,27.4,160.9,27.1,162.7,26.6z"/>
<path class="st2" d="M180.7,44l-0.2-0.2c-0.7-0.9-1.4-1.8-2.2-2.6c-0.3-0.3-0.6-0.6-1-0.8c-1.7-1.1-3.5-2-5.4-2.5
	c2.5-0.5,5-1.4,7.2-2.7c2.7-1.6,4.9-3.8,6.5-6.5c1.7-2.9,2.5-6.2,2.3-9.5c0.2-3.8-0.9-7.6-3.1-10.8V8.2c-2-2.8-4.8-5-8.1-6.1
	c-4.8-1.3-9.7-1.8-14.6-1.6h-34.3v66.6h20.5v-27h1.8c1.8,0,3.5,0.6,5,1.6c1,0.9,1.9,2,2.7,3.2c0.4,0.6,0.8,1.3,1.1,2l11,20.3h9.7
	c-0.2-0.2-0.2-13.1,0-13.1h6.8l-3.2-6.3C182.5,46.5,181.6,45.2,180.7,44z M148.4,27.5V14h9c3.8,0,6.3,0.5,7.7,1.8
	c0.9,0.7,1.5,1.7,1.8,2.8c0.2,0.7,0.3,1.5,0.2,2.2c-0.1,1.3-0.5,2.5-1.3,3.6c-0.8,1.1-1.9,1.8-3.2,2.2c-1.8,0.5-3.6,0.8-5.4,0.9
	H148.4L148.4,27.5z"/>
<path d="M174,71.3"/>
<polygon class="st3" points="184.9,59.2 184.9,71.8 188.9,71.8 197.5,71.8 197.5,63.2 197.5,59.2 "/>
</svg>
