<?xml version="1.0" encoding="UTF-8" standalone="no"?>
<!-- Created with Inkscape (http://www.inkscape.org/) -->

<svg
   xmlns:dc="http://purl.org/dc/elements/1.1/"
   xmlns:cc="http://creativecommons.org/ns#"
   xmlns:rdf="http://www.w3.org/1999/02/22-rdf-syntax-ns#"
   xmlns:svg="http://www.w3.org/2000/svg"
   xmlns="http://www.w3.org/2000/svg"
   version="1.1"
   width="892.91339"
   height="307.20471"
   id="svg25697">
  <defs
     id="defs25699">
    <clipPath
       id="clipPath25462">
      <path
         d="m 21,21 612.283,0 0,858.898 L 21,879.898 21,21 z"
         id="path25464" />
    </clipPath>
    <clipPath
       id="clipPath25414">
      <path
         d="m 21,21 612.283,0 0,858.898 L 21,879.898 21,21 z"
         id="path25416" />
    </clipPath>
    <clipPath
       id="clipPath25398">
      <path
         d="m 21,21 612.283,0 0,858.898 L 21,879.898 21,21 z"
         id="path25400" />
    </clipPath>
    <clipPath
       id="clipPath25382">
      <path
         d="m 21,21 612.283,0 0,858.898 L 21,879.898 21,21 z"
         id="path25384" />
    </clipPath>
    <clipPath
       id="clipPath25366">
      <path
         d="m 21,21 612.283,0 0,858.898 L 21,879.898 21,21 z"
         id="path25368" />
    </clipPath>
    <clipPath
       id="clipPath25340">
      <path
         d="m 21,21 612.283,0 0,858.898 L 21,879.898 21,21 z"
         id="path25342" />
    </clipPath>
    <clipPath
       id="clipPath25312">
      <path
         d="m 21,21 612.283,0 0,858.898 L 21,879.898 21,21 z"
         id="path25314" />
    </clipPath>
  </defs>
  <metadata
     id="metadata25702">
    <rdf:RDF>
      <cc:Work
         rdf:about="">
        <dc:format>image/svg+xml</dc:format>
        <dc:type
           rdf:resource="http://purl.org/dc/dcmitype/StillImage" />
        <dc:title></dc:title>
      </cc:Work>
    </rdf:RDF>
  </metadata>
  <g
     transform="translate(1.2656422,-194.59449)"
     id="layer1">
    <g
       transform="matrix(5.648793,0,0,5.648793,-732.98578,-1480.8301)"
       id="g25892">
      <path
         d="m 145.93168,297.21094 -6.40125,0 0,6.40125 6.40125,0 0,-6.40125 z"
         id="path25304"
         style="fill:#064d7a;fill-opacity:1;fill-rule:nonzero;stroke:none" />
      <path
         d="m 145.93168,315.94719 -6.40125,0 0,6.40125 6.40125,0 0,-6.40125 z"
         id="path25306"
         style="fill:#064d7a;fill-opacity:1;fill-rule:nonzero;stroke:none" />
      <g
         transform="matrix(1.25,0,0,-1.25,-455.75207,420.45219)"
         id="g25308">
        <g
           clip-path="url(#clipPath25312)"
           id="g25310">
          <g
             transform="translate(559.8442,73.0603)"
             id="g25316">
            <path
               d="M 0,0 C 0,4.024 3.079,6.615 8.553,6.605 14.026,6.596 17.105,4.024 17.105,0 17.105,-4.024 14.026,-6.614 8.553,-6.605 3.079,-6.595 0,-4.024 0,0 m 8.553,-3.172 c 2.224,-0.011 2.701,1.799 2.701,3.172 0,1.373 -0.477,3.162 -2.701,3.172 C 6.329,3.184 5.851,1.373 5.851,0 c 0,-1.373 0.478,-3.161 2.702,-3.172"
               id="path25318"
               style="fill:#064d7a;fill-opacity:1;fill-rule:nonzero;stroke:none" />
          </g>
          <g
             transform="translate(535.7544,75.5297)"
             id="g25320">
            <path
               d="m 0,0 c 1.536,0 2.07,-0.817 2.07,-2.073 l 0,-6.714 5.853,0 0,8.694 c 0,2.503 -2.17,4.237 -5.345,4.237 -2.493,0 -3.861,-0.562 -4.962,-2 l 0,1.683 -5.565,0 0,-12.614 5.88,0 0,6.702 C -2.069,-0.829 -1.535,0 0,0"
               id="path25322"
               style="fill:#064d7a;fill-opacity:1;fill-rule:nonzero;stroke:none" />
          </g>
          <g
             transform="translate(585.7098,75.5297)"
             id="g25324">
            <path
               d="m 0,0 c 1.535,0 2.07,-0.817 2.07,-2.073 l 0,-6.714 5.853,0 0,8.694 c 0,2.503 -2.171,4.237 -5.345,4.237 -2.494,0 -3.861,-0.562 -4.962,-2 l 0,1.683 -5.566,0 0,-12.614 5.88,0 0,6.702 C -2.07,-0.829 -1.535,0 0,0"
               id="path25326"
               style="fill:#064d7a;fill-opacity:1;fill-rule:nonzero;stroke:none" />
          </g>
          <g
             transform="translate(551.9518,75.2904)"
             id="g25328">
            <path
               d="m 0,0 c 1.172,-0.115 3.238,-0.45 4.982,-1.125 1.527,-0.592 2.332,-1.798 2.332,-3.194 0,-2.468 -2.419,-4.73 -7.128,-4.73 -3.016,0 -5.938,1.034 -7.904,2.64 l 3.309,2.493 c 1.077,-1.01 3.012,-1.656 4.595,-1.656 0.714,0 1.542,0.212 1.542,0.757 0,0.615 -0.944,0.723 -1.542,0.804 -3.844,0.518 -7.158,1.244 -7.158,4.162 0,2.33 2.117,4.423 6.883,4.423 2.853,0 5.579,-0.827 6.971,-1.971 L 3.686,0.198 C 2.68,0.778 1.468,1.378 -0.089,1.378 -0.668,1.378 -1.331,1.152 -1.312,0.711 -1.29,0.214 -0.425,0.041 0,0"
               id="path25330"
               style="fill:#064d7a;fill-opacity:1;fill-rule:nonzero;stroke:none" />
          </g>
        </g>
      </g>
      <g
         transform="matrix(1.25,0,0,-1.25,158.26643,315.94669)"
         id="g25332">
        <path
           d="m 0,0 6.295,0 0,-6.032 6.012,0 0,6.032 6.351,0 0,-16.862 -6.351,0 0,6.561 -6.012,0 0,-6.561 -6.295,0 L 0,0 z"
           id="path25334"
           style="fill:#064d7a;fill-opacity:1;fill-rule:nonzero;stroke:none" />
      </g>
      <g
         transform="matrix(1.25,0,0,-1.25,-455.75207,420.45219)"
         id="g25336">
        <g
           clip-path="url(#clipPath25340)"
           id="g25338">
          <g
             transform="translate(515.4423,74.701)"
             id="g25344">
            <path
               d="M 0,0 C 1.102,0.231 4.162,0.596 5.65,0.781 5.612,1.591 5.159,2.188 3.475,2.188 2.134,2.188 1.144,1.781 0.944,0.902 L -4.35,0.895 c 0.386,3.125 3.624,4.208 7.783,4.208 4.943,0 7.783,-1.39 7.783,-4.549 l 0,-8.512 -5.572,0 -0.004,1.71 C 4.79,-7.353 3.243,-8.229 0.474,-8.229 c -3.711,0 -5.338,1.927 -5.338,4.074 0,2.536 2.072,3.568 4.864,4.155 M 5.644,-1.673 C 4.553,-1.801 3.287,-1.928 2.318,-2.138 1.229,-2.373 0.374,-2.792 0.374,-3.65 c 0,-0.845 1.05,-1.333 1.944,-1.333 1.563,-0.014 3.294,0.739 3.327,1.669 l -10e-4,1.641 z"
               id="path25346"
               style="fill:#064d7a;fill-opacity:1;fill-rule:nonzero;stroke:none" />
          </g>
        </g>
      </g>
      <path
         d="m 155.29918,297.21094 -6.40125,0 0,6.40125 6.40125,0 0,-6.40125 z"
         id="path25348"
         style="fill:#e65917;fill-opacity:1;fill-rule:nonzero;stroke:none" />
      <path
         d="m 155.29918,306.57844 -6.40125,0 0,6.40125 6.40125,0 0,-6.40125 z"
         id="path25350"
         style="fill:#e65917;fill-opacity:1;fill-rule:nonzero;stroke:none" />
      <path
         d="m 155.29918,315.94719 -6.40125,0 0,6.40125 6.40125,0 0,-6.40125 z"
         id="path25352"
         style="fill:#e65917;fill-opacity:1;fill-rule:nonzero;stroke:none" />
      <path
         d="m 145.93168,306.57844 -6.40125,0 0,6.40125 6.40125,0 0,-6.40125 z"
         id="path25354"
         style="fill:#e65917;fill-opacity:1;fill-rule:nonzero;stroke:none" />
      <path
         d="m 136.56418,297.21094 -6.40125,0 0,6.40125 6.40125,0 0,-6.40125 z"
         id="path25356"
         style="fill:#e65917;fill-opacity:1;fill-rule:nonzero;stroke:none" />
      <path
         d="m 136.56418,306.57844 -6.40125,0 0,6.40125 6.40125,0 0,-6.40125 z"
         id="path25358"
         style="fill:#e65917;fill-opacity:1;fill-rule:nonzero;stroke:none" />
      <path
         d="m 136.56418,315.94719 -6.40125,0 0,6.40125 6.40125,0 0,-6.40125 z"
         id="path25360"
         style="fill:#e65917;fill-opacity:1;fill-rule:nonzero;stroke:none" />
      <g
         transform="matrix(1.25,0,0,-1.25,-455.75207,420.45219)"
         id="g25362">
        <g
           clip-path="url(#clipPath25366)"
           id="g25364">
          <g
             transform="translate(546.0958,63.2934)"
             id="g25370">
            <path
               d="m 0,0 c -0.122,0.065 -0.248,0.139 -0.378,0.195 -0.634,0.277 -1.286,0.312 -1.524,0.312 -1.321,0 -2.054,-0.686 -2.383,-1.087 -0.427,-0.531 -0.649,-1.198 -0.649,-1.893 0,-0.849 0.328,-1.681 0.962,-2.236 0.742,-0.653 1.576,-0.71 1.928,-0.71 0.991,0.009 1.674,0.391 1.995,0.572 l -0.255,0.481 c -0.528,-0.253 -1.014,-0.481 -1.631,-0.481 -1.007,0 -1.558,0.579 -1.773,0.873 -0.437,0.587 -0.462,1.248 -0.462,1.51 0,0.327 0.042,1.239 0.791,1.877 0.586,0.498 1.196,0.529 1.484,0.529 0.628,0 0.973,-0.138 1.219,-0.252 0.134,-0.066 0.257,-0.141 0.387,-0.211 L 0,0 z"
               id="path25372"
               style="fill:#064d7a;fill-opacity:1;fill-rule:nonzero;stroke:none" />
          </g>
        </g>
      </g>
      <g
         transform="matrix(1.25,0,0,-1.25,227.8453,340.73829)"
         id="g25374">
        <path
           d="m 0,0 0,-5.785 3.106,0 0,0.585 -2.399,0 0,2.092 2.275,0 0,0.576 -2.265,0 0,1.973 2.331,0 L 3.048,0 0,0 z"
           id="path25376"
           style="fill:#064d7a;fill-opacity:1;fill-rule:nonzero;stroke:none" />
      </g>
      <g
         transform="matrix(1.25,0,0,-1.25,-455.75207,420.45219)"
         id="g25378">
        <g
           clip-path="url(#clipPath25382)"
           id="g25380">
          <g
             transform="translate(551.8066,63.7632)"
             id="g25386">
            <path
               d="m 0,0 -1.02,-5.695 0.667,-0.116 c 0.089,0.57 0.181,1.139 0.28,1.708 0.092,0.534 0.19,1.07 0.272,1.614 0.089,0.577 0.157,1.162 0.222,1.748 0.074,-0.28 0.141,-0.569 0.233,-0.851 0.057,-0.173 0.121,-0.337 0.179,-0.502 0.191,-0.494 0.364,-0.997 0.546,-1.499 0.262,-0.734 0.517,-1.46 0.783,-2.184 l 0.658,0 c 0.362,0.964 0.724,1.927 1.097,2.892 0.066,0.19 0.139,0.379 0.215,0.568 0.09,0.232 0.172,0.464 0.261,0.694 0.108,0.287 0.208,0.593 0.306,0.897 0.008,-0.626 0.048,-0.972 0.215,-2.126 0.147,-0.998 0.296,-1.994 0.454,-2.992 l 0.674,0.14 -0.915,5.712 -0.707,0 C 4.214,-0.518 3.997,-1.047 3.8,-1.575 3.636,-1.987 3.489,-2.407 3.321,-2.819 3.175,-3.215 3.008,-3.593 2.86,-3.989 2.738,-4.327 2.621,-4.681 2.507,-5.028 2.44,-4.797 2.383,-4.564 2.3,-4.344 2.194,-4.015 2.061,-3.701 1.947,-3.371 L 1.551,-2.209 C 1.296,-1.467 1.024,-0.741 0.759,-0.008 L 0,0 z"
               id="path25388"
               style="fill:#064d7a;fill-opacity:1;fill-rule:nonzero;stroke:none" />
          </g>
        </g>
      </g>
      <g
         transform="matrix(1.25,0,0,-1.25,242.67456,340.73829)"
         id="g25390">
        <path
           d="m 0,0 0,-5.785 3.108,0 0,0.585 -2.399,0 0,2.092 2.274,0 0,0.576 -2.266,0 0,1.973 2.332,0 L 3.049,0 0,0 z"
           id="path25392"
           style="fill:#064d7a;fill-opacity:1;fill-rule:nonzero;stroke:none" />
      </g>
      <g
         transform="matrix(1.25,0,0,-1.25,-455.75207,420.45219)"
         id="g25394">
        <g
           clip-path="url(#clipPath25398)"
           id="g25396">
          <g
             transform="translate(562.8188,63.556)"
             id="g25402">
            <path
               d="m 0,0 0,-5.554 0.65,0 0,3.585 c 0,0.181 -0.008,0.362 -0.016,0.544 -0.008,0.23 -0.032,0.46 -0.058,0.701 0.223,-0.405 0.256,-0.454 0.676,-1.03 0.389,-0.528 0.777,-1.065 1.162,-1.591 0.545,-0.759 1.097,-1.509 1.64,-2.267 l 0.563,0.238 0,5.589 -0.654,0 0,-3.642 c 0,-0.495 0.01,-0.71 0.074,-1.187 C 3.949,-4.433 3.856,-4.252 3.751,-4.078 3.594,-3.823 3.421,-3.575 3.24,-3.337 2.869,-2.809 2.472,-2.299 2.094,-1.78 1.591,-1.103 1.105,-0.419 0.609,0.257 L 0,0 z"
               id="path25404"
               style="fill:#064d7a;fill-opacity:1;fill-rule:nonzero;stroke:none" />
          </g>
        </g>
      </g>
      <g
         transform="matrix(1.25,0,0,-1.25,254.38031,340.73829)"
         id="g25406">
        <path
           d="m 0,0 0,-0.577 1.836,0 0,-5.2 0.726,0 0,5.208 1.831,0 L 4.393,0 0,0 z"
           id="path25408"
           style="fill:#064d7a;fill-opacity:1;fill-rule:nonzero;stroke:none" />
      </g>
      <g
         transform="matrix(1.25,0,0,-1.25,-455.75207,420.45219)"
         id="g25410">
        <g
           clip-path="url(#clipPath25414)"
           id="g25412">
          <g
             transform="translate(578.3262,63.3814)"
             id="g25418">
            <path
               d="m 0,0 c -0.304,0.137 -0.824,0.387 -1.666,0.387 -0.881,0 -1.671,-0.242 -2.316,-0.857 -0.806,-0.765 -0.863,-1.727 -0.863,-2.113 0,-0.454 0.089,-1.69 1.276,-2.434 0.709,-0.443 1.393,-0.46 1.706,-0.46 0.7,0 1.271,0.154 1.492,0.234 0.165,0.065 0.322,0.138 0.485,0.21 l 0,2.738 -0.691,0 0,-2.406 c -0.222,-0.08 -0.602,-0.228 -1.194,-0.228 -0.462,0 -0.792,0.108 -0.958,0.171 -0.347,0.137 -0.569,0.331 -0.666,0.429 -0.661,0.621 -0.709,1.437 -0.709,1.737 0,0.984 0.502,1.857 1.416,2.243 0.429,0.186 0.818,0.195 0.999,0.195 0.56,0 0.931,-0.145 1.417,-0.362 L 0,0 z"
               id="path25420"
               style="fill:#064d7a;fill-opacity:1;fill-rule:nonzero;stroke:none" />
          </g>
          <g
             transform="translate(579.4097,62.1397)"
             id="g25422">
            <path
               d="m 0,0 0,-4.146 0.66,0 0,2.712 c 0.065,0.124 0.231,0.453 0.567,0.692 0.323,0.23 0.521,0.189 0.71,0.164 L 2.142,0.04 C 1.961,0.075 1.912,0.081 1.813,0.081 1.467,0.081 1.139,-0.149 0.923,-0.403 0.808,-0.529 0.725,-0.676 0.635,-0.817 L 0.635,0 0,0 z"
               id="path25424"
               style="fill:#064d7a;fill-opacity:1;fill-rule:nonzero;stroke:none" />
          </g>
          <g
             transform="translate(582.2562,60.0195)"
             id="g25426">
            <path
               d="m 0,0 c 0,0.876 0.337,1.295 0.651,1.518 0.272,0.19 0.528,0.206 0.65,0.206 0.315,0 0.521,-0.108 0.619,-0.172 C 2.384,1.262 2.572,0.653 2.572,0.125 2.572,-0.048 2.547,-0.261 2.539,-0.294 2.429,-1.054 2.035,-1.391 1.746,-1.54 1.542,-1.639 1.367,-1.647 1.278,-1.647 1.146,-1.647 0.85,-1.631 0.551,-1.391 0.281,-1.175 0.009,-0.764 0,0 m -0.7,0 c 0,-0.88 0.379,-1.407 0.635,-1.655 0.476,-0.453 1.078,-0.486 1.301,-0.486 0.273,0 1.005,0.057 1.508,0.684 0.47,0.601 0.521,1.327 0.521,1.566 0,0.345 -0.101,1.482 -1.138,1.944 C 1.779,2.21 1.466,2.227 1.325,2.227 0.839,2.227 0.486,2.045 0.329,1.964 -0.635,1.419 -0.7,0.364 -0.7,0"
               id="path25428"
               style="fill:#064d7a;fill-opacity:1;fill-rule:nonzero;stroke:none" />
          </g>
          <g
             transform="translate(586.2825,62.1397)"
             id="g25430">
            <path
               d="m 0,0 0,-3.034 c 0.017,-0.345 0.034,-0.47 0.1,-0.626 0.164,-0.404 0.635,-0.601 1.047,-0.601 0.601,0 0.998,0.346 1.153,0.494 0.108,0.099 0.206,0.199 0.314,0.305 l 0,-0.701 0.633,0 0,4.163 -0.658,0 0,-2.95 C 2.2,-3.363 2.011,-3.527 1.748,-3.645 1.568,-3.726 1.444,-3.742 1.359,-3.742 c -0.171,0 -0.304,0.074 -0.36,0.108 -0.282,0.172 -0.307,0.427 -0.313,0.773 L 0.686,0 0,0 z"
               id="path25432"
               style="fill:#064d7a;fill-opacity:1;fill-rule:nonzero;stroke:none" />
          </g>
          <g
             transform="translate(591.1766,60.9203)"
             id="g25434">
            <path
               d="M 0,0 C 0.215,0.295 0.397,0.543 0.742,0.69 0.907,0.758 1.089,0.774 1.146,0.774 1.377,0.774 1.566,0.69 1.64,0.651 1.715,0.617 1.839,0.543 1.97,0.378 2.307,-0.042 2.33,-0.66 2.33,-0.809 2.33,-1.427 2.075,-1.847 1.937,-2.037 1.615,-2.448 1.238,-2.515 1.021,-2.515 c -0.369,0 -0.61,0.157 -0.847,0.421 C 0.116,-2.029 0.059,-1.962 0,-1.888 L 0,0 z m -0.651,1.211 0,-6.066 0.669,0 c 0.007,0.363 0.007,0.732 0.007,1.087 0,0.421 -0.007,0.841 -0.025,1.253 0.156,-0.148 0.495,-0.502 1.13,-0.502 0.881,0 1.492,0.627 1.746,1.408 0.123,0.364 0.133,0.677 0.133,0.827 0,0.806 -0.347,1.357 -0.561,1.589 C 2.159,1.129 1.731,1.309 1.302,1.309 0.733,1.309 0.379,1.029 0.222,0.881 0.124,0.774 0.067,0.69 -0.017,0.575 l -0.007,0.636 -0.627,0 z"
               id="path25436"
               style="fill:#064d7a;fill-opacity:1;fill-rule:nonzero;stroke:none" />
          </g>
          <g
             transform="translate(531.604,61.2979)"
             id="g25438">
            <path
               d="m 0,0 0,1.373 0.652,0 C 0.766,1.366 0.897,1.366 1.003,1.333 1.436,1.211 1.476,0.841 1.476,0.694 1.484,0.46 1.378,0.323 1.313,0.251 1.126,0.057 0.905,0.025 0.652,0.009 0.579,0.009 0.498,0 0.416,0 L 0,0 z m 3.352,-3.28 -1.011,1.835 c -0.155,0.241 -0.334,0.533 -0.605,0.686 -0.055,0.041 -0.08,0.048 -0.155,0.065 0.091,0.016 0.173,0.025 0.262,0.048 0.173,0.041 0.311,0.113 0.367,0.137 0.163,0.089 0.301,0.202 0.417,0.339 0.22,0.275 0.325,0.664 0.325,1.011 0.008,0.451 -0.163,0.774 -0.259,0.92 -0.449,0.661 -1.257,0.72 -1.983,0.72 -0.514,0 -1.029,0.014 -1.533,0 l -0.637,0 0,-5.761 1.46,0 0,2.166 0.213,-0.009 c 0.112,-0.006 0.219,-0.023 0.309,-0.072 0.139,-0.072 0.244,-0.25 0.393,-0.539 l 0.773,-1.546 1.664,0 z"
               id="path25440"
               style="fill:#064d7a;fill-opacity:1;fill-rule:nonzero;stroke:none" />
          </g>
          <g
             transform="translate(538.8654,59.2317)"
             id="g25442">
            <path
               d="m 0,0 0,1.885 1.468,0 L 1.411,-0.91 C 1.183,-0.988 0.955,-1.043 0.726,-1.089 0.59,-1.123 0.33,-1.183 0,-1.226 c -0.235,-0.029 -0.476,-0.049 -0.717,-0.052 -0.011,-10e-4 -0.02,-10e-4 -0.032,-10e-4 -0.773,0 -1.461,0.172 -2.065,0.661 -0.381,0.307 -1.028,0.992 -1.028,2.22 0,0.324 0.041,1.078 0.587,1.802 0.106,0.141 0.384,0.472 0.809,0.748 0.349,0.213 0.871,0.457 1.81,0.457 0.913,0 1.533,-0.22 1.876,-0.354 L 0.865,3.216 C 0.743,3.254 0.619,3.303 0.497,3.342 0.22,3.428 -0.133,3.49 -0.432,3.49 -0.562,3.49 -0.905,3.475 -1.258,3.325 -2.227,2.893 -2.308,1.9 -2.308,1.594 c 0,-0.119 0,-0.386 0.131,-0.693 0.319,-0.778 1.006,-0.986 1.427,-1.033 0.057,-0.007 0.12,-0.009 0.183,-0.008 C -0.308,-0.143 -0.095,-0.066 0,0"
               id="path25444"
               style="fill:#064d7a;fill-opacity:1;fill-rule:nonzero;stroke:none" />
          </g>
        </g>
      </g>
      <g
         transform="matrix(1.25,0,0,-1.25,205.86168,343.58879)"
         id="g25446">
        <path
           d="m 0,0 -2.478,0 0,1.095 2.478,0 0,1.189 -3.948,0 0,-5.757 3.948,0 0,1.181 -2.478,0 0,1.135 2.478,0 L 0,0 z"
           id="path25448"
           style="fill:#064d7a;fill-opacity:1;fill-rule:nonzero;stroke:none" />
      </g>
      <g
         transform="matrix(1.25,0,0,-1.25,187.41768,343.58879)"
         id="g25450">
        <path
           d="m 0,0 -2.479,0 0,1.095 2.479,0 0,1.189 -3.947,0 0,-5.757 3.947,0 0,1.181 -2.479,0 0,1.135 2.479,0 L 0,0 z"
           id="path25452"
           style="fill:#064d7a;fill-opacity:1;fill-rule:nonzero;stroke:none" />
      </g>
      <g
         transform="matrix(1.25,0,0,-1.25,190.38793,340.73369)"
         id="g25454">
        <path
           d="m 0,0 -1.509,0 0,-5.757 4.012,0 0,1.256 L 0,-4.501 0,0 z"
           id="path25456"
           style="fill:#064d7a;fill-opacity:1;fill-rule:nonzero;stroke:none" />
      </g>
      <g
         transform="matrix(1.25,0,0,-1.25,-455.75207,420.45219)"
         id="g25458">
        <g
           clip-path="url(#clipPath25462)"
           id="g25460">
          <g
             transform="translate(506.4445,59.1577)"
             id="g25466">
            <path
               d="m 0,0 c 0.542,0.02 1.062,0.137 1.459,0.598 0.171,0.191 0.417,0.559 0.417,1.174 0,0.497 -0.164,0.815 -0.279,0.985 -0.39,0.582 -0.995,0.71 -1.68,0.71 -0.22,0 -0.448,-0.006 -0.668,-0.006 l 0,-3.446 L 0,0 z m -0.751,-1.14 -1.526,0 0,5.751 1.722,0 c 0.269,0.008 0.537,0 0.799,0 0.163,0 0.333,0 0.498,-0.016 C 1.01,4.571 1.736,4.515 2.381,4.036 2.788,3.732 3.44,3.043 3.433,1.789 3.433,1.605 3.424,1.205 3.262,0.743 2.967,-0.09 2.291,-0.738 1.434,-1.001 1.157,-1.089 0.807,-1.152 0.179,-1.152 l -0.179,0 -0.751,0.012 z"
               id="path25468"
               style="fill:#064d7a;fill-opacity:1;fill-rule:nonzero;stroke:none" />
          </g>
          <g
             transform="translate(521.6342,61.4572)"
             id="g25470">
            <path
               d="m 0,0 0.744,0 c 0.39,0.007 0.553,0.062 0.666,0.238 0.041,0.056 0.108,0.168 0.108,0.336 0,0.064 -0.01,0.263 -0.132,0.408 C 1.208,1.207 0.923,1.207 0.677,1.213 L 0,1.213 0,0 z m 0.752,-2.333 c 0.192,0.006 0.315,0.014 0.414,0.054 0.139,0.047 0.36,0.183 0.36,0.534 0,0.064 -0.008,0.201 -0.106,0.352 -0.172,0.271 -0.482,0.28 -0.774,0.28 l -0.646,0 0,-1.21 0.752,-0.01 z M 0,-3.439 l -1.459,0 0,5.756 2.389,0 C 1.754,2.3 2.178,2.179 2.488,1.913 2.701,1.737 2.953,1.423 2.953,0.788 2.953,0.675 2.953,0.602 2.929,0.492 2.904,0.346 2.814,-0.079 2.439,-0.352 2.309,-0.447 2.187,-0.505 2.04,-0.561 2.169,-0.611 2.48,-0.713 2.725,-1.003 2.945,-1.26 3.042,-1.565 3.042,-1.902 3.042,-2.698 2.579,-3.06 2.3,-3.212 1.941,-3.411 1.52,-3.455 0.752,-3.45 L 0,-3.439 z"
               id="path25472"
               style="fill:#064d7a;fill-opacity:1;fill-rule:nonzero;stroke:none" />
          </g>
        </g>
      </g>
      <g
         transform="matrix(1.25,0,0,-1.25,170.35743,343.58879)"
         id="g25474">
        <path
           d="m 0,0 -2.479,0 0,1.095 2.479,0 0,1.189 -3.947,0 0,-5.757 3.947,0 0,1.181 -2.479,0 0,1.135 2.479,0 L 0,0 z"
           id="path25476"
           style="fill:#064d7a;fill-opacity:1;fill-rule:nonzero;stroke:none" />
      </g>
      <path
         d="m 171.42293,347.92969 1.905,0 0,-7.1975 -1.905,0 0,7.1975 z"
         id="path25478"
         style="fill:#064d7a;fill-opacity:1;fill-rule:nonzero;stroke:none" />
      <path
         d="m 158.17043,342.60594 1.87625,0 0,-1.87625 -1.87625,0 0,1.87625 z"
         id="path25480"
         style="fill:#064d7a;fill-opacity:1;fill-rule:nonzero;stroke:none" />
      <g
         transform="matrix(1.25,0,0,-1.25,164.27893,340.73419)"
         id="g25482">
        <path
           d="m 0,0 -1.501,0 0,-2.285 -3.385,0 0,-3.474 1.501,0 0,2.306 1.884,0 0,-2.306 1.501,0 L 0,0 z"
           id="path25484"
           style="fill:#064d7a;fill-opacity:1;fill-rule:nonzero;stroke:none" />
      </g>
    </g>
  </g>
</svg>
