<svg width="96" height="32" viewBox="0 0 96 32" fill="none" xmlns="http://www.w3.org/2000/svg">
<path d="M40.3893 18.9444C40.3893 16.9553 39.1863 15.6368 37.5832 14.9914C38.9001 14.268 39.7017 13.0275 39.7017 11.4788C39.7017 8.37754 37.24 6.69922 33.3462 6.69922H24.1531V24.7821H33.2601C37.5541 24.7821 40.3893 22.7414 40.3893 18.9444ZM35.6357 11.7619C35.6357 12.7696 35.0354 13.4679 33.3741 13.4679H28.076V10.032H33.174C34.9202 10.032 35.6357 10.6258 35.6357 11.7619ZM36.265 18.996C36.265 20.4177 35.3495 21.3462 33.402 21.3462H28.076V16.671H33.402C35.3495 16.671 36.265 17.446 36.265 18.996ZM58.5681 24.7821L50.9515 6.69922H47.0576L39.384 24.7821H43.6792L45.2544 20.7523H52.5837L54.1589 24.7821H58.5681ZM51.2098 17.3164H46.6284L47.9174 14.0365C48.3176 12.9772 48.719 11.8914 48.9191 11.2196C49.1192 11.8914 49.5205 12.9772 49.9207 14.0365L51.2098 17.3164ZM75.3137 24.7821V6.69922H71.3616V14.346C71.3616 15.3538 71.4198 17.6272 71.4198 18.2978C71.1615 17.8335 70.5031 16.9289 70.0168 16.2571L62.9155 6.69922H59.0775V24.7821H63.0295V16.8258C63.0295 15.818 62.9725 13.5446 62.9725 12.8728C63.2295 13.3383 63.888 14.2416 64.3755 14.9134L71.7351 24.7821H75.3137ZM95.1272 24.7821L87.7676 12.9508L93.6381 6.69922H88.7984L83.1862 12.8728C82.6429 13.4679 81.8984 14.2944 81.6122 14.7071C81.6401 14.1384 81.6692 12.5117 81.6692 11.8399V6.69922H77.6602V24.7821H81.6692V19.4602L84.8755 16.0508L90.3167 24.7821H95.1272ZM0.872559 3.23564C0.872559 1.9511 1.87663 0.910645 3.11597 0.910645C4.35408 0.910645 5.35695 1.9511 5.35695 3.23564C5.35695 4.52143 4.35408 5.56188 3.11597 5.56188C1.87663 5.56188 0.872559 4.52143 0.872559 3.23564ZM5.11927 6.69922H1.11024V24.7821H5.11927V6.69922ZM22.3656 19.0212C22.3656 22.1853 20.3259 24.4071 15.7324 24.7393C16.5631 25.2199 17.0578 26.1886 17.0021 27.1536C16.922 28.5098 15.981 30.0271 14.9951 30.9279C14.8787 31.0336 14.3075 31.1619 14.1547 31.0399C14.048 30.9569 14.3936 30.6826 14.8072 30.0485C15.2219 29.4132 15.3007 28.998 15.3237 28.803C15.3468 28.6092 15.3577 28.4331 15.2267 28.4507C15.097 28.4683 14.8217 28.5564 14.5525 28.6143C14.2833 28.6735 13.911 28.6735 13.911 28.6735C12.8899 28.5904 12.2727 27.5713 12.2727 26.6265C12.2727 25.8125 12.7359 25.1168 13.3993 24.7368C10.5131 24.494 8.05267 23.295 6.70178 21.501L9.59396 19.1772C10.997 20.648 12.8014 21.243 14.7198 21.243C17.0966 21.243 18.2135 20.648 18.2135 19.2804C18.2135 18.1179 17.5259 17.6008 13.7461 16.8258C10.0523 16.0508 7.47545 14.9915 7.47545 11.426C7.47545 8.1461 10.6817 6.1306 14.6337 6.1306C17.7551 6.1306 20.0458 7.18993 21.9351 8.97268L19.0429 11.504C17.7551 10.3151 16.323 9.64451 14.4906 9.64451C12.343 9.64451 11.6276 10.4711 11.6276 11.2712C11.6276 12.4086 12.4861 12.7697 15.6645 13.4415C18.8429 14.1133 22.3656 15.0946 22.3656 19.0212Z" fill="white"/>
</svg>
