<svg xmlns="http://www.w3.org/2000/svg" viewBox="0 0 268.72 50.68"><defs><style>.cls-1{fill:none;}.cls-2,.cls-3{fill:#231f20;}.cls-2,.cls-5{fill-rule:evenodd;}.cls-4{fill:#004b93;}.cls-5{fill:#fff;}</style></defs><title>Sabancı</title><g id="Layer_2" data-name="Layer 2"><g id="Layer_1-2" data-name="Layer 1"><path class="cls-1" d="M0,25.34A25.34,25.34,0,0,1,49.41,17.4a25.35,25.35,0,1,1,0,15.87A25.34,25.34,0,0,1,0,25.34Z"/><path class="cls-2" d="M136.67,31.06q0,4.67-3.07,6.15a7.8,7.8,0,0,1-2.21.61A24.37,24.37,0,0,1,128,38H104V12.67h22.88a21.89,21.89,0,0,1,3.65.23,7.38,7.38,0,0,1,2.35.76A4.74,4.74,0,0,1,135,15.82a8.07,8.07,0,0,1,.65,3.5q0,3.38-1.64,4.67a4.77,4.77,0,0,1-1.29.72,14.25,14.25,0,0,1-2.05.46,14.48,14.48,0,0,1,2.7.42,4.59,4.59,0,0,1,1.63.79C136.12,27.27,136.67,28.83,136.67,31.06ZM128,20.57a2,2,0,0,0-1.41-2.13,6.27,6.27,0,0,0-.79-.11c-.26,0-.75,0-1.49,0H111.56v4.48h13a13,13,0,0,0,1.67-.07,2.48,2.48,0,0,0,.87-.27A2,2,0,0,0,128,20.57Zm.91,9.54a2,2,0,0,0-1.36-2.21,2.29,2.29,0,0,0-.73-.11c-.28,0-.83,0-1.67,0h-13.6v4.64h14.78a4.78,4.78,0,0,0,.64,0,4,4,0,0,0,.42-.08,1.66,1.66,0,0,0,.38-.11A2,2,0,0,0,128.92,30.11Z"/><path class="cls-2" d="M169.89,38l-2.51-4.52H151L148.61,38h-8.74l14.24-25.34h10.34L178.32,38ZM159.21,18.1l-5.4,10.11h10.87Z"/><polygon class="cls-2" points="204.2 38.01 189.07 18.94 189.26 38.01 181.85 38.01 181.85 12.67 194.13 12.67 209.48 31.93 209.29 12.67 216.58 12.67 216.58 38.01 204.2 38.01"/><path class="cls-2" d="M254.92,29.61c0,1,0,1.81-.11,2.55a9,9,0,0,1-.38,1.86,6.15,6.15,0,0,1-.68,1.41,5,5,0,0,1-1,1,9,9,0,0,1-1.67.95,10.19,10.19,0,0,1-2.47.53c-1.07.1-2.47.17-4.22.19s-4,.08-6.84.08c-1.8,0-3.32,0-4.56-.08s-2.3-.14-3.19-.26a12.8,12.8,0,0,1-2.21-.5,8.39,8.39,0,0,1-1.67-.83,5.87,5.87,0,0,1-1.56-1.45,7.36,7.36,0,0,1-1-2.2,17.92,17.92,0,0,1-.54-3.34c-.1-1.32-.15-2.92-.15-4.79q0-2.51.15-4.26a14.29,14.29,0,0,1,.54-3,6,6,0,0,1,1.06-2,6.45,6.45,0,0,1,1.67-1.37,9.58,9.58,0,0,1,1.83-.8,11.65,11.65,0,0,1,2.28-.53,30.85,30.85,0,0,1,3.19-.27c1.26-.05,2.78-.07,4.56-.07,2,0,3.68,0,5.05,0s2.56.06,3.5.11a22.07,22.07,0,0,1,2.32.23,9.5,9.5,0,0,1,1.55.38,5.43,5.43,0,0,1,3.23,2.47,9.89,9.89,0,0,1,1,4.9v.95h-7.37a4.83,4.83,0,0,0-.27-1.6,1.62,1.62,0,0,0-1-.91,5.89,5.89,0,0,0-2.13-.42c-.94-.05-2.21-.07-3.8-.07-.81,0-1.59,0-2.32,0s-1.41,0-2,0-1.08,0-1.49,0a4.79,4.79,0,0,0-.79,0,3.78,3.78,0,0,0-2.17,1,4.28,4.28,0,0,0-.84,2.32c0,.28,0,.79-.07,1.52s0,1.41,0,2.09a24.76,24.76,0,0,0,.19,3.5,3,3,0,0,0,1,1.9,4.51,4.51,0,0,0,2.35.83c1,.1,2.45.15,4.22.15h3.69L244,32a7.25,7.25,0,0,0,1.25-.19,4.17,4.17,0,0,0,.84-.31,2,2,0,0,0,1-1,4.74,4.74,0,0,0,.31-2h7.48Z"/><rect class="cls-3" x="261" y="12.67" width="7.71" height="25.34"/><path class="cls-4" d="M0,25.34A25.34,25.34,0,0,1,49.41,17.4a25.35,25.35,0,1,1,0,15.87A25.34,25.34,0,0,1,0,25.34Z"/><path class="cls-5" d="M41.16,30.15c0-2.63-.53-4.53-1.55-5.67-1.18-1.36-2.74-1.82-6.54-2-2.05-.08-3.57-.12-4-.12H21.86a13.1,13.1,0,0,1-3-.15,1.94,1.94,0,0,1-1.7-2c0-1.4.68-1.94,2.58-2.09,1.18-.07,4.6-.19,7-.19,5.21,0,5.93.31,5.93,2.51H40.1c0-4.37-.84-6.12-3.38-7.07-1.94-.72-3.95-.87-11.36-.87a65.08,65.08,0,0,0-9.5.42c-4.71.6-6.34,2.66-6.34,7.71,0,4,1.06,5.93,3.72,6.84,1.29.45,3.5.64,7.18.64h7a35.85,35.85,0,0,1,3.8.08c1.56.15,2.32.87,2.32,2.16,0,2.25-1,2.47-10,2.47a35,35,0,0,1-4.83-.26c-1.14-.27-1.4-.72-1.48-2.62H9.63c0,.57,0,1.21,0,1.48,0,3.61,1.22,5.43,4.07,6.15,1.86.5,4.44.65,10.18.65a95.44,95.44,0,0,0,10.64-.38C39.34,37.32,41.16,35.24,41.16,30.15Z"/><path class="cls-5" d="M79,28.21,73.49,18.1l-5.4,10.11ZM92.6,38H84.16l-2.5-4.52H65.32L62.89,38H54.15L68.4,12.67H78.73Z"/><path class="cls-2" d="M128,20.57a2,2,0,0,0-1.41-2.13,6.27,6.27,0,0,0-.79-.11c-.26,0-.75,0-1.49,0H111.56v4.48h13a13,13,0,0,0,1.67-.07,2.48,2.48,0,0,0,.87-.27A2,2,0,0,0,128,20.57Zm.91,9.54a2,2,0,0,0-1.36-2.21,2.29,2.29,0,0,0-.73-.11c-.28,0-.83,0-1.67,0h-13.6v4.64h14.78a4.78,4.78,0,0,0,.64,0l.42-.08a1.66,1.66,0,0,0,.38-.11A2,2,0,0,0,128.92,30.11Zm7.75.95q0,4.67-3.07,6.15a7.8,7.8,0,0,1-2.21.61A24.37,24.37,0,0,1,128,38H104V12.67h22.88a21.89,21.89,0,0,1,3.65.23,7.38,7.38,0,0,1,2.35.76A4.74,4.74,0,0,1,135,15.82a8.07,8.07,0,0,1,.65,3.5q0,3.38-1.64,4.67a4.77,4.77,0,0,1-1.29.72,14.25,14.25,0,0,1-2.05.46,14.48,14.48,0,0,1,2.7.42,4.59,4.59,0,0,1,1.63.79C136.12,27.27,136.67,28.83,136.67,31.06Z"/><path class="cls-2" d="M159.21,18.1l-5.4,10.11h10.87ZM169.89,38l-2.51-4.52H151L148.61,38h-8.74l14.24-25.34h10.34L178.32,38Z"/></g></g></svg>