<?xml version="1.0" encoding="UTF-8"?>
<svg width="105px" height="30px" viewBox="0 0 105 30" version="1.1" xmlns="http://www.w3.org/2000/svg" xmlns:xlink="http://www.w3.org/1999/xlink">
    <!-- Generator: Sketch 53.2 (72643) - https://sketchapp.com -->
    <title>_logo</title>
    <desc>Created with Sketch.</desc>
    <g id="Page-1" stroke="none" stroke-width="1" fill="none" fill-rule="evenodd">
        <g id="Unsubscribe-V-2.0.2" transform="translate(-546.000000, -311.000000)" fill="#0055B8" fill-rule="nonzero">
            <g id="_logo" transform="translate(546.000000, 311.000000)">
                <path d="M47.5037251,12.7113657 L34.1938686,12.7113657 L34.1938686,14.204627 L38.8997536,14.204627 L38.8997536,18.0486049 C38.8997536,19.0771255 39.8672132,19.9109058 41.0562316,19.9109058 L42.7975368,19.9109058 L42.7975368,14.2048235 L47.5037251,14.204627 L47.5037251,12.7113657 L47.5037251,12.7113657 Z" id="Path"></path>
                <path d="M59.8181384,14.2002926 L59.8181385,12.7113571 L49.0017995,12.7113571 C49.0017995,12.7113571 49.0015001,17.2906666 49.0015001,17.683485 C49.0015001,18.88945 50.1872091,19.9108963 51.6241249,19.9108963 L59.8181385,19.9108963 L59.8181385,18.3701801 L53.5237885,18.3701801 C53.1350632,18.3701801 52.8991861,18.0646114 52.8991861,17.7887153 L52.8991861,17.0049457 L59.4116805,17.0049457 L59.4116805,15.5658235 L52.8991861,15.5658235 L52.8991861,14.2002925 L59.8181384,14.2002925 L59.8181384,14.2002926 Z" id="Path"></path>
                <path d="M86.6943508,19.9109364 C88.3704492,19.9109364 89.2726979,18.8848744 89.2726979,17.7349129 C89.2726979,16.4283333 88.3173674,15.6789532 86.7106758,15.5592795 C85.1043808,15.438428 81.59843,15.1768761 81.59843,15.1768761 C81.1420907,15.1345291 80.9728204,14.9237757 80.9728204,14.6574087 C80.9728204,14.3906507 81.2086043,14.1769485 81.59843,14.1751804 L88.6882626,14.1751804 L88.6882626,12.7114954 L80.1129358,12.7114954 C78.3945665,12.7114954 77.4186877,13.6094351 77.4186877,14.7330647 C77.4186877,15.930089 78.3124356,16.8098546 79.979621,16.9097786 C79.979621,16.9097786 84.5886522,17.2551403 85.0483903,17.2975845 C85.5075295,17.3399315 85.7537275,17.5379123 85.7537275,17.8651962 C85.7537275,18.1672287 85.4680664,18.3713016 85.0175447,18.3713016 L77.7355991,18.3713016 L77.7355991,19.9109363 L86.6943508,19.9109363 L86.6943508,19.9109364 Z" id="Path"></path>
                <path d="M95.1661975,16.9961624 L96.5729675,14.5701809 C96.7115943,14.3212061 96.9743117,14.3212061 97.1204518,14.5701809 L98.5081823,16.9961624 L95.1661975,16.9961624 Z M99.7380755,12.7115145 L95.959382,12.7115145 C94.1963385,12.7115145 93.3272375,13.7545767 92.8796169,14.4804755 C92.4321907,15.2072573 89.5561503,19.9109574 89.5561503,19.9109574 L93.4730741,19.9109574 L94.3414673,18.418974 L99.3330212,18.418974 L100.202013,19.9109574 L104.118424,19.9109574 L99.7380755,12.7115145 Z" id="Shape"></path>
                <path d="M72.684508,12.7131453 C72.6395305,12.7131453 72.5960618,12.7178622 72.5519865,12.7197285 C71.4304811,12.7667923 70.4020261,13.3632908 69.9646174,14.3111449 L68.8048543,16.6693307 L67.6513909,14.3111449 C67.21399,13.3632909 66.1855272,12.7667924 65.0642201,12.7197285 C65.0199465,12.7178622 64.9764739,12.7131453 64.9323052,12.7131453 C64.88753,12.7131453 61.5223097,12.7107888 61.5223097,12.7113781 L61.5223097,19.9109173 L65.0431817,19.9109173 L65.0431817,14.5609045 L65.1359367,14.5609045 C65.360097,14.5609045 65.4648683,14.6343985 65.5649262,14.8363104 L67.9353487,19.9109173 L69.6743518,19.9109173 L72.044471,14.8363104 C72.1439302,14.6343985 72.249207,14.5609045 72.472259,14.5609045 L72.5658073,14.5609045 L72.5658073,19.9109173 L76.0871888,19.9109173 L76.0871888,12.7113781 C76.0871887,12.7107887 72.7297733,12.7131453 72.684508,12.7131453" id="Path"></path>
                <path d="M15.2504865,29.3992748 C7.15904109,29.3932819 0.605075549,22.9415512 0.611285228,14.9886999 C0.617195403,7.0363407 7.18197849,0.5943375 15.2733222,0.600625 C23.365068,0.6064211 29.9201386,7.05825 29.9135257,15.0109053 C29.9072181,22.9633636 23.3427329,29.4053669 15.2504865,29.3992748 M26.0540041,4.3933148 C23.1712558,1.5601703 19.3387785,0 15.2622053,0 C11.1855329,0 7.35275426,1.5601703 4.47030731,4.3933148 C1.58755861,7.2264614 0,10.9933119 0,15 C0,19.0064907 1.58755861,22.7733402 4.4703068,25.6063881 C7.35295458,28.4397316 11.1855329,30 15.2622053,30 C19.3387786,30 23.1712558,28.4397316 26.0540041,25.6063881 C28.9367505,22.7733402 30.5243094,19.0064907 30.5243094,15 C30.5243094,10.9933119 28.9367505,7.2264614 26.0540041,4.3933148" id="Shape"></path>
                <path d="M28.0209979,12.5344219 C27.4608926,13.9850406 26.4936333,14.326374 24.8070138,14.326374 C23.9692641,14.326374 23.3821183,14.3008279 22.6564487,14.3008279 C19.94698,14.3008279 18.1240417,16.3610114 18.1240417,19.2778682 L18.1240417,27.4591598 C23.9123734,26.1878547 28.239047,21.1040115 28.2440557,15.0313444 C28.2448569,14.1824322 28.1710383,13.3429518 28.0209979,12.5344219" id="Path"></path>
                <path d="M15.1154888,14.3408957 C13.4636271,14.3408957 12.1245674,13.0273409 12.1245674,11.4069405 C12.1245674,9.7865401 13.4636271,8.4729882 15.1154888,8.4729882 C16.7673533,8.4729882 18.106412,9.7865401 18.106412,11.4069405 C18.106412,13.0273409 16.7673534,14.3408957 15.1154888,14.3408957 M7.76013153,14.3408957 C6.10816785,14.3408957 4.76910867,13.0273409 4.76910867,11.4069405 C4.76910867,9.7865401 6.10816785,8.4729882 7.76013153,8.4729882 C9.41189448,8.4729882 10.7510534,9.7865401 10.7510534,11.4069405 C10.7510534,13.0273409 9.41189438,14.3408957 7.76013153,14.3408957 M18.5485242,14.4415054 C19.2962295,13.5863065 19.5198901,12.8070564 19.7002804,11.4921274 C19.8123625,10.678194 19.9876449,10.0773716 20.5135912,9.5220413 C20.9839495,9.0248775 21.6193762,8.7668638 22.3731908,8.7146911 C22.522331,8.7043743 22.6891999,8.6972026 22.8680892,8.6906194 L26.5310918,8.6906194 C24.2974918,4.8657979 20.1033318,2.2880143 15.2939764,2.2843808 C8.13643797,2.2788785 2.32967618,7.9770026 2.32426716,15.0115738 C2.31945917,21.0346241 6.58052983,26.0874195 12.2957443,27.41856 L12.2957443,19.6960163 C12.2855274,18.2731056 12.5186028,17.4392261 13.1157651,16.8747597 C13.9552181,16.0811634 15.0490832,16.012682 15.7580262,15.8739481 C16.2928875,15.7694063 16.6563737,15.7055407 17.3064222,15.3851347 C17.6453673,15.2180052 18.1645045,14.8811922 18.5485242,14.4415054" id="Shape"></path>
            </g>
        </g>
    </g>
</svg>