<svg xmlns="http://www.w3.org/2000/svg" xmlns:xlink="http://www.w3.org/1999/xlink" width="68" height="30" viewBox="0 0 68 30">
    <defs>
        <path id="cmgjcyylba" d="M0.205 0L18.64 0 18.64 28.955 0.205 28.955z"/>
        <path id="ns6dijvm9c" d="M0 0.315L38.621 0.315 38.621 25.257 0 25.257z"/>
    </defs>
    <g fill="none" fill-rule="evenodd">
        <g>
            <g>
                <g>
                    <path fill="#000" d="M63.364 14.591c-.123.01-.247.016-.374.018.127-.011.251-.016.374-.018 1.788-.144 3.24-1.107 3.84-2.743.674-2.06.696-3.14.796-3.976.022-1.926-1.372-3.808-3.661-3.986l-12.363.022-4.7 21.215.852 4.02h13.148c2.322-.301 4.213-1.66 4.888-3.776.608-1.659 1.072-4.209 1.404-6.302.064-2.611-1.711-4.512-4.204-4.474m-2.818 8.806c-.177.49-.453.835-.73 1.113-.884.768-2.046.613-2.532.613h-2.775l1.89-8.665h3.505c1.25-.033 1.682 1.281 1.77 1.782-.088.947-.884 4.734-1.128 5.157m1.25-11.65c-.332.524-.785.892-1.46.925H57.13l1.04-4.8h3.417c.52 0 .796.346.884.802-.033.835-.43 2.65-.674 3.074" transform="translate(-154.000000, -60.000000) translate(0.000000, 8.000000) translate(154.000000, 52.000000)"/>
                    <g transform="translate(-154.000000, -60.000000) translate(0.000000, 8.000000) translate(154.000000, 52.000000) translate(36.914286, 0.000000)">
                        <mask id="w9hjiz251b" fill="#fff">
                            <use xlink:href="#cmgjcyylba"/>
                        </mask>
                        <path fill="#C22525" d="M11.521 28.955L11.251 28.955 4.52 28.955 0.205 13.397 13.311 0 18.64 0 6.85 12.112z" mask="url(#w9hjiz251b)"/>
                    </g>
                    <g transform="translate(-154.000000, -60.000000) translate(0.000000, 8.000000) translate(154.000000, 52.000000) translate(0.000000, 3.885714)">
                        <mask id="2mtivieg3d" fill="#fff">
                            <use xlink:href="#ns6dijvm9c"/>
                        </mask>
                        <path fill="#000" d="M0 6.241h1.924c.153-1.336.852-1.906 2.143-1.938H6.7L2.47 22.957c-.055 1.512.819 2.367 2.59 2.268l6.526.032v-.186c-.94-.142-1.815-.416-1.869-1.753l4.187-19.07h1.781l-1.268 5.948c.033 1.644.82 2.398 2.056 2.968L21.48 16.1c2.449 1.96 1.06 5.17-1.694 5.17l-3.892.055c-1.082-.241-1.508-.997-1.563-1.993h-2.055l-.81 3.778c-.032 1.304.93 2.06 2.143 2.027l7.959.055c3.17.153 4.952-1.753 5.706-3.473l-.208 1.205c-.032 1.271.416 1.906 1.716 2.147h7.215v-.121c-1.18-.054-1.87-.777-1.847-1.872l4.47-20.824c-.097-1.129-.633-1.786-1.813-1.939l-6.67.033c.034 0 .121.142.121.142.907.395 1.301 1.008 1.301 2.06l-2.656 11.972c-.033-1.27-.569-2.18-1.388-2.903l-6.188-3.69c-.962-.483-1.29-1.02-1.323-1.895.12-1.03.481-1.666 1.564-1.82l6.548-.032c1.235-.274 1.541-.876 1.693-1.906l.395-1.928H2.95C1.749.315 1.027.951.809 2.221L0 6.241z" mask="url(#2mtivieg3d)"/>
                    </g>
                </g>
            </g>
        </g>
    </g>
</svg>
